<svg xmlns="http://www.w3.org/2000/svg" width="64" height="36.331" viewBox="0 0 64 36.331"><defs><style>.a{fill:#e8ba4e;}.b{fill:#9f6c10;}.c{fill:#fff;}</style></defs><g transform="translate(0 -110.58)"><path class="a" d="M17.051,153.315h60.8V119.122h-60.8Z" transform="translate(-14.918 -7.473)"/><path class="b" d="M477.447,153.315h3.2V119.122h-3.2Z" transform="translate(-417.714 -7.473)"/><path class="c" d="M8.525,153.315h3.2V119.122h-3.2Z" transform="translate(-7.459 -7.473)"/><path class="b" d="M39.459,139.424l30.933-20.3H8.526Z" transform="translate(-7.459 -7.473)"/><path class="a" d="M39.459,258.981l-4.884-3.206-26.049,17.1H70.393l-26.049-17.1Z" transform="translate(-7.459 -127.03)"/><g transform="translate(0 110.58)"><path d="M4.641,112.718,32,130.675l27.359-17.957ZM32,133.02a1.063,1.063,0,0,1-.585-.175L.483,112.543a1.069,1.069,0,0,1,.585-1.962H62.934a1.069,1.069,0,0,1,.585,1.962l-30.933,20.3a1.064,1.064,0,0,1-.585.175Z" transform="translate(0 -110.581)"/><path d="M4.641,264.335H59.359L36.884,249.583l-4.3,2.822a1.065,1.065,0,0,1-1.169,0l-4.3-2.822Zm58.292,2.137H1.067a1.069,1.069,0,0,1-.585-1.962l26.049-17.1a1.065,1.065,0,0,1,1.169,0l4.3,2.822,4.3-2.822a1.063,1.063,0,0,1,1.168,0l26.05,17.1a1.069,1.069,0,0,1-.585,1.962Z" transform="translate(0 -230.141)"/><path d="M2.133,222.681a1.067,1.067,0,1,1-1.067-1.069,1.068,1.068,0,0,1,1.067,1.069" transform="translate(0 -207.721)"/><path d="M62.933,146.911H1.067A1.068,1.068,0,0,1,0,145.842V129.814a1.067,1.067,0,1,1,2.133,0v14.96H61.867V112.717H2.133v8.548a1.067,1.067,0,1,1-2.133,0v-9.617a1.068,1.068,0,0,1,1.067-1.069H62.933A1.068,1.068,0,0,1,64,111.649v34.194a1.068,1.068,0,0,1-1.067,1.069" transform="translate(0 -110.58)"/></g></g></svg>