<svg xmlns="http://www.w3.org/2000/svg" width="27.068" height="14.539" viewBox="0 0 27.068 14.539"><defs><style>.a{fill:none;}.b{fill:#e8ba4e;}.c,.d{stroke:none;}.d{fill:#9f6c10;}</style></defs><g transform="translate(87 14.319)"><g class="a" transform="translate(-79.084 -12.719)"><path class="c" d="M5.618,0A5.618,5.618,0,1,1,0,5.618,5.618,5.618,0,0,1,5.618,0Z"/><path class="d" d="M 5.617965698242188 -9.5367431640625e-07 C 2.51524543762207 -9.5367431640625e-07 -4.76837158203125e-06 2.51526927947998 -4.76837158203125e-06 5.618019104003906 C -4.76837158203125e-06 8.720759391784668 2.51524543762207 11.23603916168213 5.617965698242188 11.23603916168213 C 8.720685958862305 11.23603916168213 11.23593616485596 8.720759391784668 11.23593616485596 5.618019104003906 C 11.23593616485596 2.51526927947998 8.720685958862305 -9.5367431640625e-07 5.617965698242188 -9.5367431640625e-07 M 5.617965698242188 -1.600001335144043 C 9.597965240478516 -1.600001335144043 12.83593559265137 1.637989044189453 12.83593559265137 5.618019104003906 C 12.83593559265137 9.598049163818359 9.597965240478516 12.83603858947754 5.617965698242188 12.83603858947754 C 1.637966156005859 12.83603858947754 -1.600004196166992 9.598049163818359 -1.600004196166992 5.618019104003906 C -1.600004196166992 1.637989044189453 1.637966156005859 -1.600001335144043 5.617965698242188 -1.600001335144043 Z"/></g><path d="M13.534,14.471C7.756,14.471,2.1,11.59.091,7.62a.857.857,0,0,1,0-.769C2.1,2.881,7.756,0,13.534,0S24.965,2.881,26.976,6.851a.852.852,0,0,1-1.52.769,11.213,11.213,0,0,0-6.28-4.9,1.288,1.288,0,0,1,.13.2,12.055,12.055,0,0,0-5.773-1.389,12.054,12.054,0,0,0-5.774,1.39,1.281,1.281,0,0,1,.128-.2A11.689,11.689,0,0,0,1.822,7.235a11.047,11.047,0,0,0,5.1,4.125,11.518,11.518,0,0,0,6.608,1.919,11.6,11.6,0,0,0,6.339-1.733,11.344,11.344,0,0,0,4.136-2.635.85.85,0,0,1,1.2-.044.851.851,0,0,1,.044,1.2C22.812,12.7,18.1,14.471,13.534,14.471Z" transform="translate(-87 -14.251)"/><path class="b" d="M165.874,61.523a3.38,3.38,0,0,0-1.217.234,1.692,1.692,0,0,1-2.125,2.544,3.4,3.4,0,1,0,3.342-2.778Zm0,0" transform="translate(-239.34 -71.944)"/></g></svg>