<svg xmlns="http://www.w3.org/2000/svg" width="46" height="60" viewBox="0 0 46 60"><defs><style>.a{opacity:0.2;}.b{fill:#e8ba4e;}.c{fill:#9f6c10;}</style></defs><g class="a" transform="translate(-56 0)"><path class="b" d="M96,19V8h32l8,8V66H96V19Z" transform="translate(-35 -7)"/><path class="c" d="M336,8V18h10V16l-8-8Z" transform="translate(-245 -7)"/><path d="M9700,3473a1,1,0,0,1-1-1v-4a1,1,0,1,1,2,0v3h38v-48.585l-7.414-7.415H9701v15a1,1,0,1,1-2,0v-16a1,1,0,0,1,1-1h32a1,1,0,0,1,.707.293l8,8a1,1,0,0,1,.293.707v50a1,1,0,0,1-1,1Z" transform="translate(-9639 -3413)"/><path d="M9704,3421h-4a1,1,0,0,1-1-1v-6a1,1,0,0,1,2,0v5h5a1,1,0,1,1,0,2Z" transform="translate(-9609 -3409)"/><circle cx="1" cy="1" r="1" transform="translate(78 30)"/><rect width="20" height="2" rx="1" transform="translate(56 20)"/><rect width="20" height="2" rx="1" transform="translate(56 30)"/><rect width="40" height="2" rx="1" transform="translate(56 40)"/><rect width="40" height="2" rx="1" transform="translate(56 50)"/></g></svg>