<svg xmlns="http://www.w3.org/2000/svg" width="55.999" height="56" viewBox="0 0 55.999 56"><defs><style>.a{opacity:0.2;}.b{fill:#9f6c10;}.c{fill:#e8ba4e;}</style></defs><g class="a" transform="translate(-17.999 -14.999)"><circle class="b" cx="24" cy="24" r="24" transform="translate(22 18.999)"/><g transform="translate(18 14.999)"><path class="c" d="M69,44a2,2,0,0,1-2-2,22,22,0,0,0-44,0,2,2,0,0,1-4,0,26,26,0,0,1,52,0A2,2,0,0,1,69,44Z" transform="translate(-17 -13.997)"/><path class="c" d="M60,41a2,2,0,0,1-2-2,16,16,0,0,0-32,0,2,2,0,0,1-4,0,20,20,0,0,1,40,0A2,2,0,0,1,60,41Z" transform="translate(-14 -10.997)"/><path class="c" d="M51,38a2,2,0,0,1-2-2,10,10,0,1,0-20,0,2,2,0,1,1-4,0,14,14,0,1,1,28,0A2,2,0,0,1,51,38Z" transform="translate(-10.999 -7.996)"/><path class="c" d="M42,35a2,2,0,0,1-2-2,4,4,0,0,0-8,0,2,2,0,0,1-4,0,8,8,0,1,1,16,0A2,2,0,0,1,42,35Z" transform="translate(-7.999 -4.996)"/><path class="c" d="M33,56a2,2,0,0,1-2-2V30a2,2,0,1,1,4,0V54A2,2,0,0,1,33,56Z" transform="translate(-4.999 -1.996)"/><path class="c" d="M36,55.245a2,2,0,0,1-2-2V30a2,2,0,1,1,4,0V53.245A2,2,0,0,1,36,55.245Z" transform="translate(-1.998 -1.996)"/><path class="c" d="M39,52.791a2,2,0,0,1-2-2V30a2,2,0,1,1,4,0V50.791A2,2,0,0,1,39,52.791Z" transform="translate(1.002 -1.996)"/><path class="c" d="M42,48a2,2,0,0,1-2-2V30a2,2,0,0,1,4,0V45.995A2,2,0,0,1,42,48Z" transform="translate(4.002 -1.996)"/><path class="c" d="M27,52.791a2,2,0,0,1-2-2V30a2,2,0,1,1,4,0V50.791A2,2,0,0,1,27,52.791Z" transform="translate(-10.999 -1.996)"/><path class="c" d="M30,55.245a2,2,0,0,1-2-2V30a2,2,0,1,1,4,0V53.245A2,2,0,0,1,30,55.245Z" transform="translate(-7.999 -1.996)"/><path class="c" d="M24,47.871a2,2,0,0,1-2-2V30a2,2,0,1,1,4,0V45.871A2,2,0,0,1,24,47.871Z" transform="translate(-14 -1.996)"/><path class="c" d="M45,41.995a2,2,0,0,1-2-2V30a2,2,0,1,1,4,0v9.993A2,2,0,0,1,45,41.995Z" transform="translate(7.003 -1.996)"/><path class="c" d="M21,41.995a2,2,0,0,1-2-2V30a2,2,0,1,1,4,0v9.993A2,2,0,0,1,21,41.995Z" transform="translate(-17 -1.996)"/><path d="M9428,3416v-6a2,2,0,0,1,2-2h6a2,2,0,1,1,0,4h-4v4a2,2,0,0,1-4,0Z" transform="translate(-9428 -3407.999)"/><path d="M6,8V4H2A2,2,0,0,1,2,0H8a2,2,0,0,1,2,2V8A2,2,0,0,1,6,8Z" transform="translate(45.999)"/><path d="M2,10A2,2,0,0,1,0,8V2A2,2,0,0,1,4,2V6H8a2,2,0,1,1,0,4Z" transform="translate(0.001 45.999)"/><path d="M2,10A2,2,0,0,1,2,6H6V2a2,2,0,0,1,4,0V8a2,2,0,0,1-2,2Z" transform="translate(45.999 45.999)"/></g></g></svg>