<svg xmlns="http://www.w3.org/2000/svg" xmlns:xlink="http://www.w3.org/1999/xlink" width="48" height="64" viewBox="0 0 48 64"><defs><style>.a{fill:#f2f2f2;}.b{fill:#ffca28;}.c{fill:#fff;}.c,.f{opacity:0.2;}.d{opacity:0.1;}.e,.f{fill:#9f6c10;}.g{fill:url(#a);}</style><linearGradient id="a" x1="-0.28" y1="1.245" x2="-0.229" y2="1.227" gradientUnits="objectBoundingBox"><stop offset="0" stop-color="#fff" stop-opacity="0.2"/><stop offset="1" stop-color="#fff" stop-opacity="0"/></linearGradient></defs><g transform="translate(-64)"><path d="M110.667,24h-4V18.667a18.667,18.667,0,0,0-37.333,0V24h-4A1.333,1.333,0,0,0,64,25.333V58.667A5.339,5.339,0,0,0,69.333,64h37.333A5.339,5.339,0,0,0,112,58.667V25.333A1.333,1.333,0,0,0,110.667,24Zm-12,0H77.333V18.667a10.667,10.667,0,0,1,21.333,0Z"/><path class="a" d="M128,37.333a16,16,0,0,1,32,0v5.333h-2.667V37.333a13.333,13.333,0,0,0-26.667,0v5.333H128Z" transform="translate(-56 -18.666)"/><path class="b" d="M128,245.333A2.67,2.67,0,0,1,125.334,248H88a2.67,2.67,0,0,1-2.667-2.667v-32H128Z" transform="translate(-18.667 -186.666)"/><path class="c" d="M90.666,245.333v-32H85.333v32A2.67,2.67,0,0,0,88,248h4.667C91.564,248,90.666,246.8,90.666,245.333Z" transform="translate(-18.666 -186.666)"/><path class="d" d="M370,213.333v32c0,1.47-.9,2.667-2,2.667h4.667a2.67,2.67,0,0,0,2.667-2.667v-32Z" transform="translate(-266 -186.666)"/><path class="e" d="M215.515,286.956l-.841,7.564A1.334,1.334,0,0,0,216,296h5.333a1.334,1.334,0,0,0,1.326-1.48l-.841-7.564A5.275,5.275,0,0,0,224,282.666a5.333,5.333,0,0,0-10.667,0A5.275,5.275,0,0,0,215.515,286.956Z" transform="translate(-130.666 -242.666)"/><path class="f" d="M237.334,298.667a2.658,2.658,0,0,1,1.151,5.057,1.334,1.334,0,0,0-.745,1.348l.771,6.928h-2.354l.771-6.928a1.334,1.334,0,0,0-.745-1.348,2.658,2.658,0,0,1,1.151-5.057Z" transform="translate(-149.334 -261.334)"/><path class="d" d="M236.3,303.833a2.6,2.6,0,0,1-.3-1.167A2.67,2.67,0,0,1,238.666,300a2.628,2.628,0,0,1,1.089.245,2.659,2.659,0,1,0-3.573,3.479C236.232,303.748,236.251,303.8,236.3,303.833Z" transform="translate(-149.333 -261.333)"/><path class="d" d="M248.5,349.392l-.31-2.786c-.088-.076-.141-.183-.249-.236a2.722,2.722,0,0,1-.689-.489,1.281,1.281,0,0,1,.1.5l-.771,6.928h1.482Z" transform="translate(-159.76 -302.646)"/><path class="g" d="M110.667,24h-4V18.667a18.667,18.667,0,0,0-37.333,0V24h-4A1.333,1.333,0,0,0,64,25.333V58.667A5.339,5.339,0,0,0,69.333,64h37.333A5.339,5.339,0,0,0,112,58.667V25.333A1.333,1.333,0,0,0,110.667,24Zm-12,0H77.333V18.667a10.667,10.667,0,0,1,21.333,0Z"/></g></svg>